<?xml version="1.0" encoding="utf-8"?>
<!-- Generator: Adobe Illustrator 22.0.0, SVG Export Plug-In . SVG Version: 6.00 Build 0)  -->
<svg version="1.1" id="Layer_1" xmlns="http://www.w3.org/2000/svg" xmlns:xlink="http://www.w3.org/1999/xlink" x="0px" y="0px"
	 viewBox="0 0 450 100" style="enable-background:new 0 0 450 100;" xml:space="preserve">
<style type="text/css">
	.st0{fill:url(#SVGID_1_);}
	.st1{fill:url(#SVGID_2_);}
	.st2{fill:url(#SVGID_3_);}
	.st3{fill:url(#SVGID_4_);}
	.st4{fill:url(#SVGID_5_);}
	.st5{fill:url(#SVGID_6_);}
	.st6{fill:url(#SVGID_7_);}
	.st7{fill:url(#SVGID_8_);}
	.st8{fill:url(#SVGID_9_);}
	.st9{fill:url(#SVGID_10_);}
	.st10{fill:url(#SVGID_11_);}
	.st11{fill:url(#SVGID_12_);}
	.st12{fill:url(#SVGID_13_);}
	.st13{fill:url(#SVGID_14_);}
	.st14{fill:url(#SVGID_15_);}
</style>
<g>
	
		<linearGradient id="SVGID_1_" gradientUnits="userSpaceOnUse" x1="35.1338" y1="25.3827" x2="95.6048" y2="25.3827" gradientTransform="matrix(-1.836970e-16 -1 1 -1.836970e-16 26.7546 112.5892)">
		<stop  offset="0" style="stop-color:#43C5ED"/>
		<stop  offset="0.4183" style="stop-color:#43D4DA"/>
		<stop  offset="1" style="stop-color:#43EDB8"/>
	</linearGradient>
	<path class="st0" d="M26.6,77.5l52.2-2c1.8-0.1,3.3-1.7,3.1-3.5l-3.9-52c-0.1-1.7-1.6-3.1-3.4-3l-49.1,1.9
		c-1.8,0.1-3.3,1.7-3.1,3.5L26.6,77.5"/>
	
		<linearGradient id="SVGID_2_" gradientUnits="userSpaceOnUse" x1="35.1338" y1="29.8587" x2="86.9097" y2="29.8587" gradientTransform="matrix(-1.836970e-16 -1 1 -1.836970e-16 26.7546 112.5892)">
		<stop  offset="0" style="stop-color:#158CFF"/>
		<stop  offset="0.3225" style="stop-color:#219BFA"/>
		<stop  offset="0.9361" style="stop-color:#3FC1EE"/>
		<stop  offset="1" style="stop-color:#43C5ED"/>
	</linearGradient>
	<polyline class="st1" points="26.6,77.5 82.1,75.3 86.7,25.7 31.1,27.8 26.6,77.5 	"/>
	
		<linearGradient id="SVGID_3_" gradientUnits="userSpaceOnUse" x1="35.1338" y1="35.1911" x2="78.2727" y2="35.1911" gradientTransform="matrix(-1.836970e-16 -1 1 -1.836970e-16 26.7546 112.5892)">
		<stop  offset="0" style="stop-color:#0040F2"/>
		<stop  offset="0.2627" style="stop-color:#0657F6"/>
		<stop  offset="0.7459" style="stop-color:#117DFD"/>
		<stop  offset="1" style="stop-color:#158CFF"/>
	</linearGradient>
	<polyline class="st2" points="26.6,77.5 82.1,75.3 97.3,34.3 41.8,36.4 26.6,77.5 	"/>
	
		<linearGradient id="SVGID_4_" gradientUnits="userSpaceOnUse" x1="52.2814" y1="79.052" x2="52.2814" y2="-0.1933" gradientTransform="matrix(-1.836970e-16 -1 1 -1.836970e-16 26.7546 112.5892)">
		<stop  offset="7.012486e-02" style="stop-color:#18258C"/>
		<stop  offset="0.8538" style="stop-color:#0040F2"/>
	</linearGradient>
	<path class="st3" d="M26.6,77.5l54.8-2.1c0.5,0,1-0.3,1.4-0.7L105,48.4c1.8-2.1,0.2-5.3-2.5-5.2l-47,1.8c-0.9,0-1.7,0.4-2.3,1.1
		L26.6,77.5"/>
</g>
<g>
	<linearGradient id="SVGID_5_" gradientUnits="userSpaceOnUse" x1="117.3893" y1="48.741" x2="413.291" y2="52.2929">
		<stop  offset="7.012486e-02" style="stop-color:#18258C"/>
		<stop  offset="0.8538" style="stop-color:#0040F2"/>
	</linearGradient>
	<path class="st4" d="M147,34.7l-14,21.4H132L118,34.7v32.5h-2.8V30.7c1.4,0,2,0,3.3,0l14,21.3l13.8-21.3h3.4v36.5H147V34.7z"/>
	<linearGradient id="SVGID_6_" gradientUnits="userSpaceOnUse" x1="117.2657" y1="59.0401" x2="413.1673" y2="62.592">
		<stop  offset="7.012486e-02" style="stop-color:#18258C"/>
		<stop  offset="0.8538" style="stop-color:#0040F2"/>
	</linearGradient>
	<path class="st5" d="M179.3,41.4l-15.7,36.5h-2.7l4.8-11.1l-10.3-25.5h2.8l6,15.2l3,7.5l3-7.5l6.5-15.2H179.3z"/>
	<linearGradient id="SVGID_7_" gradientUnits="userSpaceOnUse" x1="117.398" y1="48.0201" x2="413.2996" y2="51.572">
		<stop  offset="7.012486e-02" style="stop-color:#18258C"/>
		<stop  offset="0.8538" style="stop-color:#0040F2"/>
	</linearGradient>
	<path class="st6" d="M213.7,41.2c0,2.8-1.4,5.5-4.8,7c4.3,1.3,5.8,5.8,5.8,8.1c0,8.1-6.1,10.8-13.7,10.8c-5.8,0-11.5,0-17.3,0V30.7
		c5.7,0,11.5,0,17.3,0C208.3,30.7,213.7,33.9,213.7,41.2z M190.6,45.3h10.5c4.3,0,5.7-1.8,5.7-3.9c0-1.7-1.4-4.5-5.7-4.5h-10.5V45.3
		z M190.6,60.8h10.5c2.8,0,6.8-0.9,6.8-4.4c0-3.3-4-5-6.8-5h-10.5V60.8z"/>
	<linearGradient id="SVGID_8_" gradientUnits="userSpaceOnUse" x1="117.3384" y1="52.9825" x2="413.2401" y2="56.5344">
		<stop  offset="7.012486e-02" style="stop-color:#18258C"/>
		<stop  offset="0.8538" style="stop-color:#0040F2"/>
	</linearGradient>
	<path class="st7" d="M244.7,54.4c0,7.4-5.1,13.4-13.4,13.4s-13.4-6-13.4-13.4c0-7.4,5.1-13.4,13.3-13.4
		C239.5,40.9,244.7,47,244.7,54.4z M224.3,54.4c0,3.9,2.3,7.6,7,7.6c4.6,0,7-3.7,7-7.6c0-3.9-2.7-7.6-7-7.6
		C226.7,46.7,224.3,50.5,224.3,54.4z"/>
	<linearGradient id="SVGID_9_" gradientUnits="userSpaceOnUse" x1="117.3427" y1="52.6229" x2="413.2444" y2="56.1748">
		<stop  offset="7.012486e-02" style="stop-color:#18258C"/>
		<stop  offset="0.8538" style="stop-color:#0040F2"/>
	</linearGradient>
	<path class="st8" d="M274.7,54.4c0,7.4-5.1,13.4-13.4,13.4c-8.4,0-13.4-6-13.4-13.4c0-7.4,5.1-13.4,13.3-13.4
		C269.4,40.9,274.7,47,274.7,54.4z M254.3,54.4c0,3.9,2.3,7.6,7,7.6c4.6,0,7-3.7,7-7.6c0-3.9-2.7-7.6-7-7.6
		C256.7,46.7,254.3,50.5,254.3,54.4z"/>
	<linearGradient id="SVGID_10_" gradientUnits="userSpaceOnUse" x1="117.4106" y1="46.9709" x2="413.3122" y2="50.5228">
		<stop  offset="7.012486e-02" style="stop-color:#18258C"/>
		<stop  offset="0.8538" style="stop-color:#0040F2"/>
	</linearGradient>
	<path class="st9" d="M285.3,30.7v21.1l8.7-10.3h7.6v0.4l-10.5,11.7l12,13.2v0.5h-7.7l-10.1-11.6v11.6h-6.4V30.7H285.3z"/>
	<linearGradient id="SVGID_11_" gradientUnits="userSpaceOnUse" x1="117.35" y1="52.0141" x2="413.2517" y2="55.566">
		<stop  offset="7.012486e-02" style="stop-color:#18258C"/>
		<stop  offset="0.8538" style="stop-color:#0040F2"/>
	</linearGradient>
	<path class="st10" d="M322.8,48.3c-1.8-1.7-3.9-2.3-6.4-2.3c-3,0-4.7,0.9-4.7,2.6c0,1.7,1.5,2.6,4.8,2.8c4.9,0.3,11,1.4,11,8.2
		c0,4.5-3.7,8.5-11.1,8.5c-4.1,0-8.1-0.7-11.9-4.6l3.1-4.5c1.8,2,6,3.5,8.9,3.6c2.4,0.1,4.6-1.2,4.6-3.1c0-1.8-1.5-2.5-5.1-2.7
		c-4.9-0.4-10.6-2.1-10.6-8c0-6,6.2-8,10.9-8c4,0,7,0.8,10,3.4L322.8,48.3z"/>
	<linearGradient id="SVGID_12_" gradientUnits="userSpaceOnUse" x1="117.3962" y1="48.1654" x2="413.2979" y2="51.7173">
		<stop  offset="7.012486e-02" style="stop-color:#18258C"/>
		<stop  offset="0.8538" style="stop-color:#0040F2"/>
	</linearGradient>
	<path class="st11" d="M340.6,34.2v7.3h7.1V47h-7.2v11.1c0,2.5,1.4,3.7,3.3,3.7c1,0,2.1-0.3,3.1-0.8l1.8,5.4c-1.8,0.7-3.3,1-5.3,1.1
		c-5.6,0.2-9.2-3-9.2-9.4V47h-4.8v-5.5h4.8v-6.6L340.6,34.2z"/>
	<linearGradient id="SVGID_13_" gradientUnits="userSpaceOnUse" x1="117.3576" y1="51.3832" x2="413.2592" y2="54.9352">
		<stop  offset="7.012486e-02" style="stop-color:#18258C"/>
		<stop  offset="0.8538" style="stop-color:#0040F2"/>
	</linearGradient>
	<path class="st12" d="M378,54.4c0,7.4-5.1,13.4-13.4,13.4c-8.4,0-13.4-6-13.4-13.4c0-7.4,5.1-13.4,13.3-13.4S378,47,378,54.4z
		 M357.6,54.4c0,3.9,2.3,7.6,7,7.6c4.6,0,7-3.7,7-7.6c0-3.9-2.7-7.6-7-7.6C360,46.7,357.6,50.5,357.6,54.4z"/>
	<linearGradient id="SVGID_14_" gradientUnits="userSpaceOnUse" x1="117.3655" y1="50.7218" x2="413.2672" y2="54.2737">
		<stop  offset="7.012486e-02" style="stop-color:#18258C"/>
		<stop  offset="0.8538" style="stop-color:#0040F2"/>
	</linearGradient>
	<path class="st13" d="M388.3,41.5l0.5,3c2-3.2,4.6-3.7,7.3-3.7c2.7,0,5.2,1,6.6,2.5l-2.9,5.5c-1.3-1.1-2.5-1.7-4.6-1.7
		c-3.3,0-6.4,1.8-6.4,6.5v13.6h-6.4V41.5H388.3z"/>
	<linearGradient id="SVGID_15_" gradientUnits="userSpaceOnUse" x1="117.3662" y1="50.6662" x2="413.2679" y2="54.2181">
		<stop  offset="7.012486e-02" style="stop-color:#18258C"/>
		<stop  offset="0.8538" style="stop-color:#0040F2"/>
	</linearGradient>
	<path class="st14" d="M410.4,56.6c0.4,3.2,3.2,5.5,7.7,5.5c2.3,0,5.4-0.9,6.9-2.4l4.1,4c-2.7,2.8-7.2,4.2-11.1,4.2
		c-8.9,0-14.1-5.5-14.1-13.7c0-7.8,5.3-13.5,13.7-13.5c8.6,0,14,5.3,13,15.9H410.4z M424.4,51.3c-0.4-3.3-3-5-6.7-5
		c-3.4,0-6.3,1.7-7.2,5H424.4z"/>
</g>
</svg>
